<?xml version="1.0" encoding="utf-8" standalone="no"?>
<!DOCTYPE svg PUBLIC "-//W3C//DTD SVG 1.1//EN"
  "http://www.w3.org/Graphics/SVG/1.1/DTD/svg11.dtd">
<svg xmlns:xlink="http://www.w3.org/1999/xlink" width="460.8pt" height="345.6pt" viewBox="0 0 460.8 345.6" xmlns="http://www.w3.org/2000/svg" version="1.1">
 <metadata>
  <rdf:RDF xmlns:dc="http://purl.org/dc/elements/1.1/" xmlns:cc="http://creativecommons.org/ns#" xmlns:rdf="http://www.w3.org/1999/02/22-rdf-syntax-ns#">
   <cc:Work>
    <dc:type rdf:resource="http://purl.org/dc/dcmitype/StillImage"/>
    <dc:date>2026-05-04T12:35:15.211887</dc:date>
    <dc:format>image/svg+xml</dc:format>
    <dc:creator>
     <cc:Agent>
      <dc:title>Matplotlib v3.10.8, https://matplotlib.org/</dc:title>
     </cc:Agent>
    </dc:creator>
   </cc:Work>
  </rdf:RDF>
 </metadata>
 <defs>
  <style type="text/css">*{stroke-linejoin: round; stroke-linecap: butt}</style>
 </defs>
 <g id="figure_1">
  <g id="patch_1">
   <path d="M 0 345.6 
L 460.8 345.6 
L 460.8 0 
L 0 0 
z
" style="fill: #ffffff"/>
  </g>
  <g id="axes_1">
   <g id="patch_2">
    <path d="M 57.6 200.189317 
L 414.72 200.189317 
L 414.72 148.866683 
L 57.6 148.866683 
z
" style="fill: #ffffff"/>
   </g>
   <g id="matplotlib.axis_1">
    <g id="xtick_1">
     <g id="line2d_1">
      <defs>
       <path id="m120f641041" d="M 0 0 
L 0 3.5 
" style="stroke: #000000; stroke-width: 0.8"/>
      </defs>
      <g>
       <use xlink:href="#m120f641041" x="73.832727" y="200.189317" style="stroke: #000000; stroke-width: 0.8"/>
      </g>
     </g>
     <g id="text_1">
      <!-- 0 -->
      <g transform="translate(70.651477 214.787755) scale(0.1 -0.1)">
       <defs>
        <path id="DejaVuSans-30" d="M 2034 4250 
Q 1547 4250 1301 3770 
Q 1056 3291 1056 2328 
Q 1056 1369 1301 889 
Q 1547 409 2034 409 
Q 2525 409 2770 889 
Q 3016 1369 3016 2328 
Q 3016 3291 2770 3770 
Q 2525 4250 2034 4250 
z
M 2034 4750 
Q 2819 4750 3233 4129 
Q 3647 3509 3647 2328 
Q 3647 1150 3233 529 
Q 2819 -91 2034 -91 
Q 1250 -91 836 529 
Q 422 1150 422 2328 
Q 422 3509 836 4129 
Q 1250 4750 2034 4750 
z
" transform="scale(0.015625)"/>
       </defs>
       <use xlink:href="#DejaVuSans-30"/>
      </g>
     </g>
    </g>
    <g id="xtick_2">
     <g id="line2d_2">
      <g>
       <use xlink:href="#m120f641041" x="151.594295" y="200.189317" style="stroke: #000000; stroke-width: 0.8"/>
      </g>
     </g>
     <g id="text_2">
      <!-- 2000 -->
      <g transform="translate(138.869295 214.787755) scale(0.1 -0.1)">
       <defs>
        <path id="DejaVuSans-32" d="M 1228 531 
L 3431 531 
L 3431 0 
L 469 0 
L 469 531 
Q 828 903 1448 1529 
Q 2069 2156 2228 2338 
Q 2531 2678 2651 2914 
Q 2772 3150 2772 3378 
Q 2772 3750 2511 3984 
Q 2250 4219 1831 4219 
Q 1534 4219 1204 4116 
Q 875 4013 500 3803 
L 500 4441 
Q 881 4594 1212 4672 
Q 1544 4750 1819 4750 
Q 2544 4750 2975 4387 
Q 3406 4025 3406 3419 
Q 3406 3131 3298 2873 
Q 3191 2616 2906 2266 
Q 2828 2175 2409 1742 
Q 1991 1309 1228 531 
z
" transform="scale(0.015625)"/>
       </defs>
       <use xlink:href="#DejaVuSans-32"/>
       <use xlink:href="#DejaVuSans-30" transform="translate(63.623047 0)"/>
       <use xlink:href="#DejaVuSans-30" transform="translate(127.246094 0)"/>
       <use xlink:href="#DejaVuSans-30" transform="translate(190.869141 0)"/>
      </g>
     </g>
    </g>
    <g id="xtick_3">
     <g id="line2d_3">
      <g>
       <use xlink:href="#m120f641041" x="229.355863" y="200.189317" style="stroke: #000000; stroke-width: 0.8"/>
      </g>
     </g>
     <g id="text_3">
      <!-- 4000 -->
      <g transform="translate(216.630863 214.787755) scale(0.1 -0.1)">
       <defs>
        <path id="DejaVuSans-34" d="M 2419 4116 
L 825 1625 
L 2419 1625 
L 2419 4116 
z
M 2253 4666 
L 3047 4666 
L 3047 1625 
L 3713 1625 
L 3713 1100 
L 3047 1100 
L 3047 0 
L 2419 0 
L 2419 1100 
L 313 1100 
L 313 1709 
L 2253 4666 
z
" transform="scale(0.015625)"/>
       </defs>
       <use xlink:href="#DejaVuSans-34"/>
       <use xlink:href="#DejaVuSans-30" transform="translate(63.623047 0)"/>
       <use xlink:href="#DejaVuSans-30" transform="translate(127.246094 0)"/>
       <use xlink:href="#DejaVuSans-30" transform="translate(190.869141 0)"/>
      </g>
     </g>
    </g>
    <g id="xtick_4">
     <g id="line2d_4">
      <g>
       <use xlink:href="#m120f641041" x="307.117431" y="200.189317" style="stroke: #000000; stroke-width: 0.8"/>
      </g>
     </g>
     <g id="text_4">
      <!-- 6000 -->
      <g transform="translate(294.392431 214.787755) scale(0.1 -0.1)">
       <defs>
        <path id="DejaVuSans-36" d="M 2113 2584 
Q 1688 2584 1439 2293 
Q 1191 2003 1191 1497 
Q 1191 994 1439 701 
Q 1688 409 2113 409 
Q 2538 409 2786 701 
Q 3034 994 3034 1497 
Q 3034 2003 2786 2293 
Q 2538 2584 2113 2584 
z
M 3366 4563 
L 3366 3988 
Q 3128 4100 2886 4159 
Q 2644 4219 2406 4219 
Q 1781 4219 1451 3797 
Q 1122 3375 1075 2522 
Q 1259 2794 1537 2939 
Q 1816 3084 2150 3084 
Q 2853 3084 3261 2657 
Q 3669 2231 3669 1497 
Q 3669 778 3244 343 
Q 2819 -91 2113 -91 
Q 1303 -91 875 529 
Q 447 1150 447 2328 
Q 447 3434 972 4092 
Q 1497 4750 2381 4750 
Q 2619 4750 2861 4703 
Q 3103 4656 3366 4563 
z
" transform="scale(0.015625)"/>
       </defs>
       <use xlink:href="#DejaVuSans-36"/>
       <use xlink:href="#DejaVuSans-30" transform="translate(63.623047 0)"/>
       <use xlink:href="#DejaVuSans-30" transform="translate(127.246094 0)"/>
       <use xlink:href="#DejaVuSans-30" transform="translate(190.869141 0)"/>
      </g>
     </g>
    </g>
    <g id="xtick_5">
     <g id="line2d_5">
      <g>
       <use xlink:href="#m120f641041" x="384.878998" y="200.189317" style="stroke: #000000; stroke-width: 0.8"/>
      </g>
     </g>
     <g id="text_5">
      <!-- 8000 -->
      <g transform="translate(372.153998 214.787755) scale(0.1 -0.1)">
       <defs>
        <path id="DejaVuSans-38" d="M 2034 2216 
Q 1584 2216 1326 1975 
Q 1069 1734 1069 1313 
Q 1069 891 1326 650 
Q 1584 409 2034 409 
Q 2484 409 2743 651 
Q 3003 894 3003 1313 
Q 3003 1734 2745 1975 
Q 2488 2216 2034 2216 
z
M 1403 2484 
Q 997 2584 770 2862 
Q 544 3141 544 3541 
Q 544 4100 942 4425 
Q 1341 4750 2034 4750 
Q 2731 4750 3128 4425 
Q 3525 4100 3525 3541 
Q 3525 3141 3298 2862 
Q 3072 2584 2669 2484 
Q 3125 2378 3379 2068 
Q 3634 1759 3634 1313 
Q 3634 634 3220 271 
Q 2806 -91 2034 -91 
Q 1263 -91 848 271 
Q 434 634 434 1313 
Q 434 1759 690 2068 
Q 947 2378 1403 2484 
z
M 1172 3481 
Q 1172 3119 1398 2916 
Q 1625 2713 2034 2713 
Q 2441 2713 2670 2916 
Q 2900 3119 2900 3481 
Q 2900 3844 2670 4047 
Q 2441 4250 2034 4250 
Q 1625 4250 1398 4047 
Q 1172 3844 1172 3481 
z
" transform="scale(0.015625)"/>
       </defs>
       <use xlink:href="#DejaVuSans-38"/>
       <use xlink:href="#DejaVuSans-30" transform="translate(63.623047 0)"/>
       <use xlink:href="#DejaVuSans-30" transform="translate(127.246094 0)"/>
       <use xlink:href="#DejaVuSans-30" transform="translate(190.869141 0)"/>
      </g>
     </g>
    </g>
   </g>
   <g id="matplotlib.axis_2">
    <g id="ytick_1">
     <g id="line2d_6">
      <defs>
       <path id="ma6986d4f08" d="M 0 0 
L -3.5 0 
" style="stroke: #000000; stroke-width: 0.8"/>
      </defs>
      <g>
       <use xlink:href="#ma6986d4f08" x="57.6" y="194.3572" style="stroke: #000000; stroke-width: 0.8"/>
      </g>
     </g>
     <g id="text_6">
      <!-- −1000 -->
      <g transform="translate(16.770313 198.156419) scale(0.1 -0.1)">
       <defs>
        <path id="DejaVuSans-2212" d="M 678 2272 
L 4684 2272 
L 4684 1741 
L 678 1741 
L 678 2272 
z
" transform="scale(0.015625)"/>
        <path id="DejaVuSans-31" d="M 794 531 
L 1825 531 
L 1825 4091 
L 703 3866 
L 703 4441 
L 1819 4666 
L 2450 4666 
L 2450 531 
L 3481 531 
L 3481 0 
L 794 0 
L 794 531 
z
" transform="scale(0.015625)"/>
       </defs>
       <use xlink:href="#DejaVuSans-2212"/>
       <use xlink:href="#DejaVuSans-31" transform="translate(83.789062 0)"/>
       <use xlink:href="#DejaVuSans-30" transform="translate(147.412109 0)"/>
       <use xlink:href="#DejaVuSans-30" transform="translate(211.035156 0)"/>
       <use xlink:href="#DejaVuSans-30" transform="translate(274.658203 0)"/>
      </g>
     </g>
    </g>
    <g id="ytick_2">
     <g id="line2d_7">
      <g>
       <use xlink:href="#ma6986d4f08" x="57.6" y="155.476416" style="stroke: #000000; stroke-width: 0.8"/>
      </g>
     </g>
     <g id="text_7">
      <!-- 0 -->
      <g transform="translate(44.2375 159.275635) scale(0.1 -0.1)">
       <use xlink:href="#DejaVuSans-30"/>
      </g>
     </g>
    </g>
   </g>
   <g id="line2d_8">
    <path d="M 73.832727 155.476416 
L 74.679841 155.01811 
L 76.46043 154.309992 
L 77.497381 154.309992 
L 78.296055 153.734743 
L 79.249183 153.532377 
L 82.360034 153.532377 
L 84.062014 154.430275 
L 84.826688 155.087608 
L 86.417441 156.254032 
L 87.222711 156.813357 
L 88.169243 157.031647 
L 89.921045 157.809263 
L 91.994946 157.809263 
L 93.721904 156.97167 
L 94.569018 156.513364 
L 96.539445 154.309992 
L 98.130198 153.143569 
L 99.006099 152.754761 
L 99.76837 152.091628 
L 100.729363 151.90825 
L 101.576477 151.449944 
L 102.509703 151.19953 
L 104.582255 151.209161 
L 106.57636 151.778905 
L 107.493184 152.200128 
L 109.692888 154.399832 
L 109.991856 155.312946 
L 109.991856 156.349896 
L 109.794827 157.327191 
L 108.644434 159.052781 
L 107.968295 159.832824 
L 107.659009 160.741664 
L 107.659009 163.852515 
L 107.991682 164.751669 
L 110.191386 166.951373 
L 111.382927 168.531721 
L 113.582631 170.731426 
L 114.040937 171.578539 
L 114.65755 172.36008 
L 115.037022 173.162504 
L 117.768013 174.585511 
L 118.266985 175.41578 
L 119.74232 176.860847 
L 123.264885 178.779949 
L 125.943762 179.97131 
L 128.017663 179.97131 
L 128.937461 180.254139 
L 130.967465 180.360118 
L 137.189168 180.360118 
L 138.065069 180.748925 
L 140.13897 180.748925 
L 141.038774 181.080024 
L 141.885888 181.53833 
L 143.352358 183.0048 
L 143.535735 183.965793 
L 144.206946 184.724719 
L 144.206946 188.872521 
L 143.818138 189.748422 
L 143.319586 190.578865 
L 142.651715 191.339174 
L 142.402974 192.273093 
L 142.262907 193.252026 
L 142.262907 195.325927 
L 143.042135 195.835315 
L 144.900201 196.605686 
L 145.741159 197.078855 
L 146.708308 197.24737 
L 147.492961 197.85647 
L 153.714664 197.85647 
L 154.624011 197.548409 
L 155.471125 197.090103 
L 157.50699 196.998277 
L 159.201218 196.081665 
L 159.934453 195.34843 
L 160.781567 194.890124 
L 161.74256 194.706747 
L 162.475795 193.973512 
L 163.349575 193.579584 
L 164.170023 193.0569 
L 167.836196 189.390726 
L 168.294502 188.543612 
L 168.313032 187.514337 
L 168.70184 186.638436 
L 168.70184 183.527584 
L 168.313032 181.614733 
L 167.642158 180.855667 
L 167.458781 179.894674 
L 167.146609 178.98703 
L 167.146609 177.950079 
L 167.535416 177.074178 
L 167.535416 173.963327 
L 167.84315 173.053843 
L 168.622918 172.37737 
L 171.26426 170.735463 
L 173.311697 170.639922 
L 175.063499 171.417537 
L 176.020436 171.657578 
L 177.63033 172.958678 
L 180.563269 175.891617 
L 181.532499 177.56405 
L 182.94635 179.052314 
L 183.865346 180.745555 
L 184.254154 182.658407 
L 184.254154 185.769258 
L 184.642961 186.645159 
L 185.146604 187.473494 
L 185.993718 187.9318 
L 186.587001 188.723005 
L 187.421554 189.052982 
L 191.516511 189.691506 
L 193.822115 187.747467 
L 194.833617 187.590647 
L 195.744075 187.144165 
L 196.708822 186.969851 
L 197.745772 186.969851 
L 198.621673 186.581043 
L 199.378186 187.105045 
L 200.52858 188.830635 
L 201.246565 189.576372 
L 202.074776 190.080314 
L 202.826913 190.767913 
L 204.541429 191.635545 
L 205.482134 191.867902 
L 206.293231 192.413161 
L 207.330182 192.413161 
L 208.137355 192.967892 
L 209.081984 193.190776 
L 210.118934 193.190776 
L 211.870737 193.968392 
L 212.907687 193.968392 
L 213.789435 193.593699 
L 214.820539 193.579584 
L 215.69644 193.190776 
L 216.73339 193.190776 
L 217.519528 192.585261 
L 218.480521 192.401883 
L 219.213756 191.668648 
L 220.236994 191.635545 
L 221.135742 191.301894 
L 221.988796 190.857929 
L 222.943849 190.66021 
L 223.740598 190.080314 
L 224.638077 189.743598 
L 225.485191 189.285292 
L 226.218425 188.552057 
L 227.244202 188.525082 
L 228.996004 187.747467 
L 229.834639 187.26869 
L 230.567874 186.535455 
L 231.462658 186.192235 
L 232.262102 185.618843 
L 233.929312 184.637004 
L 234.689564 183.968996 
L 235.61835 182.304157 
L 236.56717 182.091391 
L 237.490764 181.666165 
L 238.474502 181.338252 
L 239.478912 181.137733 
L 240.321912 180.669495 
L 241.788382 179.203026 
L 242.749375 179.019648 
L 245.682314 176.086709 
L 246.643307 175.903332 
L 248.147527 174.528 
L 249.184477 174.528 
L 249.917884 173.795179 
L 250.936279 173.750384 
L 253.938222 174.528 
L 256.012123 174.528 
L 256.795583 175.13998 
L 259.676777 175.694424 
L 260.552678 176.083231 
L 261.37279 176.606724 
L 262.30448 176.860847 
L 263.294777 176.973479 
L 264.056282 177.638463 
L 264.989004 177.890091 
L 265.808084 178.416078 
L 266.845034 178.416078 
L 267.720935 178.804886 
L 268.719098 178.898529 
L 269.633787 179.193694 
L 271.707688 179.193694 
L 274.65749 179.582502 
L 276.409292 178.804886 
L 277.446242 178.804886 
L 278.322144 178.416078 
L 279.334197 178.310613 
L 280.261674 177.846875 
L 281.082204 177.234756 
L 281.964276 176.860847 
L 290.25988 176.860847 
L 291.147652 177.220997 
L 291.880887 177.954232 
L 293.575114 178.870844 
L 294.478336 179.193694 
L 295.515287 179.193694 
L 296.391188 179.582502 
L 297.305208 179.285721 
L 298.304039 179.193694 
L 298.952466 178.577412 
L 300.176862 176.946803 
L 300.840701 176.150196 
L 300.217553 174.216113 
L 298.091329 168.368998 
L 297.868408 167.411794 
L 300.247016 164.013782 
L 301.994372 163.32113 
L 303.651068 162.086149 
L 305.724969 162.086149 
L 306.638288 161.787676 
L 307.485402 162.065312 
L 308.352672 162.474957 
L 309.389622 162.474957 
L 310.327904 162.800836 
L 312.905489 164.418996 
L 314.964979 164.466591 
L 315.827774 165.041787 
L 316.709761 165.457555 
L 317.532699 165.974228 
L 319.364982 166.168527 
L 320.321452 165.974228 
L 322.395353 165.974228 
L 323.208955 165.435017 
L 323.942189 164.701782 
L 324.862006 164.418996 
L 325.403458 163.617262 
L 328.081283 158.229842 
L 328.814518 157.496607 
L 329.72814 157.031647 
L 331.17779 155.865224 
L 335.325592 155.865224 
L 336.223907 156.19992 
L 337.077394 156.642839 
L 338.056607 156.914913 
L 340.899339 158.178349 
L 343.509444 156.923101 
L 344.319166 156.275323 
L 345.212262 155.865224 
L 346.681173 154.40465 
L 348.715866 154.309992 
L 350.789767 154.309992 
L 351.762024 154.523659 
L 352.628225 155.087608 
L 354.69855 155.120178 
L 357.735323 155.795016 
L 358.280715 156.483489 
L 359.966512 157.420455 
L 360.887297 157.620629 
L 362.474326 160.288292 
L 362.716952 161.224744 
L 363.660982 163.30855 
L 364.42304 162.863765 
L 364.880493 163.632023 
L 366.019982 167.620234 
L 365.988092 168.535205 
L 365.078512 168.710239 
L 365.827414 169.284343 
L 366.426896 170.07298 
L 366.610273 171.033973 
L 367.488346 171.417537 
L 367.804198 172.170669 
L 368.160261 182.532437 
L 368.090394 183.540448 
L 367.771453 184.445289 
L 367.771453 186.51919 
L 368.160261 187.395091 
L 368.466412 188.359769 
L 368.930151 189.287246 
L 369.109038 190.251475 
L 370.609639 191.635545 
L 371.646589 191.635545 
L 373.573084 192.400966 
L 374.607686 192.413161 
L 375.502339 192.756697 
L 376.520537 192.801968 
L 377.396438 193.190776 
L 382.570928 193.166 
L 383.304163 192.432765 
L 384.332993 192.413161 
L 386.084795 191.635545 
L 386.920377 191.149398 
L 387.653611 190.416163 
L 388.551448 190.080314 
L 389.347839 189.499551 
L 391.547543 187.299847 
L 392.394657 186.841541 
L 393.127892 186.108306 
L 393.975006 185.65 
L 394.914459 185.414619 
L 396.402469 184.000153 
L 397.363462 183.816776 
L 398.096696 183.083541 
L 398.487273 182.208373 
L 398.487273 182.208373 
" clip-path="url(#pceff442ffd)" style="fill: none; stroke: #1f77b4; stroke-width: 1.5; stroke-linecap: square"/>
   </g>
   <g id="patch_3">
    <path d="M 57.6 200.189317 
L 57.6 148.866683 
" style="fill: none; stroke: #000000; stroke-width: 0.8; stroke-linejoin: miter; stroke-linecap: square"/>
   </g>
   <g id="patch_4">
    <path d="M 414.72 200.189317 
L 414.72 148.866683 
" style="fill: none; stroke: #000000; stroke-width: 0.8; stroke-linejoin: miter; stroke-linecap: square"/>
   </g>
   <g id="patch_5">
    <path d="M 57.6 200.189317 
L 414.72 200.189317 
" style="fill: none; stroke: #000000; stroke-width: 0.8; stroke-linejoin: miter; stroke-linecap: square"/>
   </g>
   <g id="patch_6">
    <path d="M 57.6 148.866683 
L 414.72 148.866683 
" style="fill: none; stroke: #000000; stroke-width: 0.8; stroke-linejoin: miter; stroke-linecap: square"/>
   </g>
   <g id="text_8">
    <!-- 2023 Arkansas River planform -->
    <g transform="translate(145.33125 142.866683) scale(0.12 -0.12)">
     <defs>
      <path id="DejaVuSans-33" d="M 2597 2516 
Q 3050 2419 3304 2112 
Q 3559 1806 3559 1356 
Q 3559 666 3084 287 
Q 2609 -91 1734 -91 
Q 1441 -91 1130 -33 
Q 819 25 488 141 
L 488 750 
Q 750 597 1062 519 
Q 1375 441 1716 441 
Q 2309 441 2620 675 
Q 2931 909 2931 1356 
Q 2931 1769 2642 2001 
Q 2353 2234 1838 2234 
L 1294 2234 
L 1294 2753 
L 1863 2753 
Q 2328 2753 2575 2939 
Q 2822 3125 2822 3475 
Q 2822 3834 2567 4026 
Q 2313 4219 1838 4219 
Q 1578 4219 1281 4162 
Q 984 4106 628 3988 
L 628 4550 
Q 988 4650 1302 4700 
Q 1616 4750 1894 4750 
Q 2613 4750 3031 4423 
Q 3450 4097 3450 3541 
Q 3450 3153 3228 2886 
Q 3006 2619 2597 2516 
z
" transform="scale(0.015625)"/>
      <path id="DejaVuSans-20" transform="scale(0.015625)"/>
      <path id="DejaVuSans-41" d="M 2188 4044 
L 1331 1722 
L 3047 1722 
L 2188 4044 
z
M 1831 4666 
L 2547 4666 
L 4325 0 
L 3669 0 
L 3244 1197 
L 1141 1197 
L 716 0 
L 50 0 
L 1831 4666 
z
" transform="scale(0.015625)"/>
      <path id="DejaVuSans-72" d="M 2631 2963 
Q 2534 3019 2420 3045 
Q 2306 3072 2169 3072 
Q 1681 3072 1420 2755 
Q 1159 2438 1159 1844 
L 1159 0 
L 581 0 
L 581 3500 
L 1159 3500 
L 1159 2956 
Q 1341 3275 1631 3429 
Q 1922 3584 2338 3584 
Q 2397 3584 2469 3576 
Q 2541 3569 2628 3553 
L 2631 2963 
z
" transform="scale(0.015625)"/>
      <path id="DejaVuSans-6b" d="M 581 4863 
L 1159 4863 
L 1159 1991 
L 2875 3500 
L 3609 3500 
L 1753 1863 
L 3688 0 
L 2938 0 
L 1159 1709 
L 1159 0 
L 581 0 
L 581 4863 
z
" transform="scale(0.015625)"/>
      <path id="DejaVuSans-61" d="M 2194 1759 
Q 1497 1759 1228 1600 
Q 959 1441 959 1056 
Q 959 750 1161 570 
Q 1363 391 1709 391 
Q 2188 391 2477 730 
Q 2766 1069 2766 1631 
L 2766 1759 
L 2194 1759 
z
M 3341 1997 
L 3341 0 
L 2766 0 
L 2766 531 
Q 2569 213 2275 61 
Q 1981 -91 1556 -91 
Q 1019 -91 701 211 
Q 384 513 384 1019 
Q 384 1609 779 1909 
Q 1175 2209 1959 2209 
L 2766 2209 
L 2766 2266 
Q 2766 2663 2505 2880 
Q 2244 3097 1772 3097 
Q 1472 3097 1187 3025 
Q 903 2953 641 2809 
L 641 3341 
Q 956 3463 1253 3523 
Q 1550 3584 1831 3584 
Q 2591 3584 2966 3190 
Q 3341 2797 3341 1997 
z
" transform="scale(0.015625)"/>
      <path id="DejaVuSans-6e" d="M 3513 2113 
L 3513 0 
L 2938 0 
L 2938 2094 
Q 2938 2591 2744 2837 
Q 2550 3084 2163 3084 
Q 1697 3084 1428 2787 
Q 1159 2491 1159 1978 
L 1159 0 
L 581 0 
L 581 3500 
L 1159 3500 
L 1159 2956 
Q 1366 3272 1645 3428 
Q 1925 3584 2291 3584 
Q 2894 3584 3203 3211 
Q 3513 2838 3513 2113 
z
" transform="scale(0.015625)"/>
      <path id="DejaVuSans-73" d="M 2834 3397 
L 2834 2853 
Q 2591 2978 2328 3040 
Q 2066 3103 1784 3103 
Q 1356 3103 1142 2972 
Q 928 2841 928 2578 
Q 928 2378 1081 2264 
Q 1234 2150 1697 2047 
L 1894 2003 
Q 2506 1872 2764 1633 
Q 3022 1394 3022 966 
Q 3022 478 2636 193 
Q 2250 -91 1575 -91 
Q 1294 -91 989 -36 
Q 684 19 347 128 
L 347 722 
Q 666 556 975 473 
Q 1284 391 1588 391 
Q 1994 391 2212 530 
Q 2431 669 2431 922 
Q 2431 1156 2273 1281 
Q 2116 1406 1581 1522 
L 1381 1569 
Q 847 1681 609 1914 
Q 372 2147 372 2553 
Q 372 3047 722 3315 
Q 1072 3584 1716 3584 
Q 2034 3584 2315 3537 
Q 2597 3491 2834 3397 
z
" transform="scale(0.015625)"/>
      <path id="DejaVuSans-52" d="M 2841 2188 
Q 3044 2119 3236 1894 
Q 3428 1669 3622 1275 
L 4263 0 
L 3584 0 
L 2988 1197 
Q 2756 1666 2539 1819 
Q 2322 1972 1947 1972 
L 1259 1972 
L 1259 0 
L 628 0 
L 628 4666 
L 2053 4666 
Q 2853 4666 3247 4331 
Q 3641 3997 3641 3322 
Q 3641 2881 3436 2590 
Q 3231 2300 2841 2188 
z
M 1259 4147 
L 1259 2491 
L 2053 2491 
Q 2509 2491 2742 2702 
Q 2975 2913 2975 3322 
Q 2975 3731 2742 3939 
Q 2509 4147 2053 4147 
L 1259 4147 
z
" transform="scale(0.015625)"/>
      <path id="DejaVuSans-69" d="M 603 3500 
L 1178 3500 
L 1178 0 
L 603 0 
L 603 3500 
z
M 603 4863 
L 1178 4863 
L 1178 4134 
L 603 4134 
L 603 4863 
z
" transform="scale(0.015625)"/>
      <path id="DejaVuSans-76" d="M 191 3500 
L 800 3500 
L 1894 563 
L 2988 3500 
L 3597 3500 
L 2284 0 
L 1503 0 
L 191 3500 
z
" transform="scale(0.015625)"/>
      <path id="DejaVuSans-65" d="M 3597 1894 
L 3597 1613 
L 953 1613 
Q 991 1019 1311 708 
Q 1631 397 2203 397 
Q 2534 397 2845 478 
Q 3156 559 3463 722 
L 3463 178 
Q 3153 47 2828 -22 
Q 2503 -91 2169 -91 
Q 1331 -91 842 396 
Q 353 884 353 1716 
Q 353 2575 817 3079 
Q 1281 3584 2069 3584 
Q 2775 3584 3186 3129 
Q 3597 2675 3597 1894 
z
M 3022 2063 
Q 3016 2534 2758 2815 
Q 2500 3097 2075 3097 
Q 1594 3097 1305 2825 
Q 1016 2553 972 2059 
L 3022 2063 
z
" transform="scale(0.015625)"/>
      <path id="DejaVuSans-70" d="M 1159 525 
L 1159 -1331 
L 581 -1331 
L 581 3500 
L 1159 3500 
L 1159 2969 
Q 1341 3281 1617 3432 
Q 1894 3584 2278 3584 
Q 2916 3584 3314 3078 
Q 3713 2572 3713 1747 
Q 3713 922 3314 415 
Q 2916 -91 2278 -91 
Q 1894 -91 1617 61 
Q 1341 213 1159 525 
z
M 3116 1747 
Q 3116 2381 2855 2742 
Q 2594 3103 2138 3103 
Q 1681 3103 1420 2742 
Q 1159 2381 1159 1747 
Q 1159 1113 1420 752 
Q 1681 391 2138 391 
Q 2594 391 2855 752 
Q 3116 1113 3116 1747 
z
" transform="scale(0.015625)"/>
      <path id="DejaVuSans-6c" d="M 603 4863 
L 1178 4863 
L 1178 0 
L 603 0 
L 603 4863 
z
" transform="scale(0.015625)"/>
      <path id="DejaVuSans-66" d="M 2375 4863 
L 2375 4384 
L 1825 4384 
Q 1516 4384 1395 4259 
Q 1275 4134 1275 3809 
L 1275 3500 
L 2222 3500 
L 2222 3053 
L 1275 3053 
L 1275 0 
L 697 0 
L 697 3053 
L 147 3053 
L 147 3500 
L 697 3500 
L 697 3744 
Q 697 4328 969 4595 
Q 1241 4863 1831 4863 
L 2375 4863 
z
" transform="scale(0.015625)"/>
      <path id="DejaVuSans-6f" d="M 1959 3097 
Q 1497 3097 1228 2736 
Q 959 2375 959 1747 
Q 959 1119 1226 758 
Q 1494 397 1959 397 
Q 2419 397 2687 759 
Q 2956 1122 2956 1747 
Q 2956 2369 2687 2733 
Q 2419 3097 1959 3097 
z
M 1959 3584 
Q 2709 3584 3137 3096 
Q 3566 2609 3566 1747 
Q 3566 888 3137 398 
Q 2709 -91 1959 -91 
Q 1206 -91 779 398 
Q 353 888 353 1747 
Q 353 2609 779 3096 
Q 1206 3584 1959 3584 
z
" transform="scale(0.015625)"/>
      <path id="DejaVuSans-6d" d="M 3328 2828 
Q 3544 3216 3844 3400 
Q 4144 3584 4550 3584 
Q 5097 3584 5394 3201 
Q 5691 2819 5691 2113 
L 5691 0 
L 5113 0 
L 5113 2094 
Q 5113 2597 4934 2840 
Q 4756 3084 4391 3084 
Q 3944 3084 3684 2787 
Q 3425 2491 3425 1978 
L 3425 0 
L 2847 0 
L 2847 2094 
Q 2847 2600 2669 2842 
Q 2491 3084 2119 3084 
Q 1678 3084 1418 2786 
Q 1159 2488 1159 1978 
L 1159 0 
L 581 0 
L 581 3500 
L 1159 3500 
L 1159 2956 
Q 1356 3278 1631 3431 
Q 1906 3584 2284 3584 
Q 2666 3584 2933 3390 
Q 3200 3197 3328 2828 
z
" transform="scale(0.015625)"/>
     </defs>
     <use xlink:href="#DejaVuSans-32"/>
     <use xlink:href="#DejaVuSans-30" transform="translate(63.623047 0)"/>
     <use xlink:href="#DejaVuSans-32" transform="translate(127.246094 0)"/>
     <use xlink:href="#DejaVuSans-33" transform="translate(190.869141 0)"/>
     <use xlink:href="#DejaVuSans-20" transform="translate(254.492188 0)"/>
     <use xlink:href="#DejaVuSans-41" transform="translate(286.279297 0)"/>
     <use xlink:href="#DejaVuSans-72" transform="translate(354.6875 0)"/>
     <use xlink:href="#DejaVuSans-6b" transform="translate(395.800781 0)"/>
     <use xlink:href="#DejaVuSans-61" transform="translate(451.960938 0)"/>
     <use xlink:href="#DejaVuSans-6e" transform="translate(513.240234 0)"/>
     <use xlink:href="#DejaVuSans-73" transform="translate(576.619141 0)"/>
     <use xlink:href="#DejaVuSans-61" transform="translate(628.71875 0)"/>
     <use xlink:href="#DejaVuSans-73" transform="translate(689.998047 0)"/>
     <use xlink:href="#DejaVuSans-20" transform="translate(742.097656 0)"/>
     <use xlink:href="#DejaVuSans-52" transform="translate(773.884766 0)"/>
     <use xlink:href="#DejaVuSans-69" transform="translate(843.367188 0)"/>
     <use xlink:href="#DejaVuSans-76" transform="translate(871.150391 0)"/>
     <use xlink:href="#DejaVuSans-65" transform="translate(930.330078 0)"/>
     <use xlink:href="#DejaVuSans-72" transform="translate(991.853516 0)"/>
     <use xlink:href="#DejaVuSans-20" transform="translate(1032.966797 0)"/>
     <use xlink:href="#DejaVuSans-70" transform="translate(1064.753906 0)"/>
     <use xlink:href="#DejaVuSans-6c" transform="translate(1128.230469 0)"/>
     <use xlink:href="#DejaVuSans-61" transform="translate(1156.013672 0)"/>
     <use xlink:href="#DejaVuSans-6e" transform="translate(1217.292969 0)"/>
     <use xlink:href="#DejaVuSans-66" transform="translate(1280.671875 0)"/>
     <use xlink:href="#DejaVuSans-6f" transform="translate(1315.876953 0)"/>
     <use xlink:href="#DejaVuSans-72" transform="translate(1377.058594 0)"/>
     <use xlink:href="#DejaVuSans-6d" transform="translate(1416.421875 0)"/>
    </g>
   </g>
  </g>
 </g>
 <defs>
  <clipPath id="pceff442ffd">
   <rect x="57.6" y="148.866683" width="357.12" height="51.322635"/>
  </clipPath>
 </defs>
</svg>
