<?xml version="1.0" encoding="utf-8" standalone="no"?>
<!DOCTYPE svg PUBLIC "-//W3C//DTD SVG 1.1//EN"
  "http://www.w3.org/Graphics/SVG/1.1/DTD/svg11.dtd">
<svg xmlns:xlink="http://www.w3.org/1999/xlink" width="460.8pt" height="345.6pt" viewBox="0 0 460.8 345.6" xmlns="http://www.w3.org/2000/svg" version="1.1">
 <metadata>
  <rdf:RDF xmlns:dc="http://purl.org/dc/elements/1.1/" xmlns:cc="http://creativecommons.org/ns#" xmlns:rdf="http://www.w3.org/1999/02/22-rdf-syntax-ns#">
   <cc:Work>
    <dc:type rdf:resource="http://purl.org/dc/dcmitype/StillImage"/>
    <dc:date>2026-05-04T11:58:16.079342</dc:date>
    <dc:format>image/svg+xml</dc:format>
    <dc:creator>
     <cc:Agent>
      <dc:title>Matplotlib v3.10.8, https://matplotlib.org/</dc:title>
     </cc:Agent>
    </dc:creator>
   </cc:Work>
  </rdf:RDF>
 </metadata>
 <defs>
  <style type="text/css">*{stroke-linejoin: round; stroke-linecap: butt}</style>
 </defs>
 <g id="figure_1">
  <g id="patch_1">
   <path d="M 0 345.6 
L 460.8 345.6 
L 460.8 0 
L 0 0 
z
" style="fill: #ffffff"/>
  </g>
  <g id="axes_1">
   <g id="patch_2">
    <path d="M 57.6 203.741978 
L 414.72 203.741978 
L 414.72 145.314022 
L 57.6 145.314022 
z
" style="fill: #ffffff"/>
   </g>
   <g id="matplotlib.axis_1">
    <g id="xtick_1">
     <g id="line2d_1">
      <defs>
       <path id="m7d65969a6c" d="M 0 0 
L 0 3.5 
" style="stroke: #000000; stroke-width: 0.8"/>
      </defs>
      <g>
       <use xlink:href="#m7d65969a6c" x="73.832727" y="203.741978" style="stroke: #000000; stroke-width: 0.8"/>
      </g>
     </g>
     <g id="text_1">
      <!-- 0 -->
      <g transform="translate(70.651477 218.340415) scale(0.1 -0.1)">
       <defs>
        <path id="DejaVuSans-30" d="M 2034 4250 
Q 1547 4250 1301 3770 
Q 1056 3291 1056 2328 
Q 1056 1369 1301 889 
Q 1547 409 2034 409 
Q 2525 409 2770 889 
Q 3016 1369 3016 2328 
Q 3016 3291 2770 3770 
Q 2525 4250 2034 4250 
z
M 2034 4750 
Q 2819 4750 3233 4129 
Q 3647 3509 3647 2328 
Q 3647 1150 3233 529 
Q 2819 -91 2034 -91 
Q 1250 -91 836 529 
Q 422 1150 422 2328 
Q 422 3509 836 4129 
Q 1250 4750 2034 4750 
z
" transform="scale(0.015625)"/>
       </defs>
       <use xlink:href="#DejaVuSans-30"/>
      </g>
     </g>
    </g>
    <g id="xtick_2">
     <g id="line2d_2">
      <g>
       <use xlink:href="#m7d65969a6c" x="151.850507" y="203.741978" style="stroke: #000000; stroke-width: 0.8"/>
      </g>
     </g>
     <g id="text_2">
      <!-- 2000 -->
      <g transform="translate(139.125507 218.340415) scale(0.1 -0.1)">
       <defs>
        <path id="DejaVuSans-32" d="M 1228 531 
L 3431 531 
L 3431 0 
L 469 0 
L 469 531 
Q 828 903 1448 1529 
Q 2069 2156 2228 2338 
Q 2531 2678 2651 2914 
Q 2772 3150 2772 3378 
Q 2772 3750 2511 3984 
Q 2250 4219 1831 4219 
Q 1534 4219 1204 4116 
Q 875 4013 500 3803 
L 500 4441 
Q 881 4594 1212 4672 
Q 1544 4750 1819 4750 
Q 2544 4750 2975 4387 
Q 3406 4025 3406 3419 
Q 3406 3131 3298 2873 
Q 3191 2616 2906 2266 
Q 2828 2175 2409 1742 
Q 1991 1309 1228 531 
z
" transform="scale(0.015625)"/>
       </defs>
       <use xlink:href="#DejaVuSans-32"/>
       <use xlink:href="#DejaVuSans-30" transform="translate(63.623047 0)"/>
       <use xlink:href="#DejaVuSans-30" transform="translate(127.246094 0)"/>
       <use xlink:href="#DejaVuSans-30" transform="translate(190.869141 0)"/>
      </g>
     </g>
    </g>
    <g id="xtick_3">
     <g id="line2d_3">
      <g>
       <use xlink:href="#m7d65969a6c" x="229.868286" y="203.741978" style="stroke: #000000; stroke-width: 0.8"/>
      </g>
     </g>
     <g id="text_3">
      <!-- 4000 -->
      <g transform="translate(217.143286 218.340415) scale(0.1 -0.1)">
       <defs>
        <path id="DejaVuSans-34" d="M 2419 4116 
L 825 1625 
L 2419 1625 
L 2419 4116 
z
M 2253 4666 
L 3047 4666 
L 3047 1625 
L 3713 1625 
L 3713 1100 
L 3047 1100 
L 3047 0 
L 2419 0 
L 2419 1100 
L 313 1100 
L 313 1709 
L 2253 4666 
z
" transform="scale(0.015625)"/>
       </defs>
       <use xlink:href="#DejaVuSans-34"/>
       <use xlink:href="#DejaVuSans-30" transform="translate(63.623047 0)"/>
       <use xlink:href="#DejaVuSans-30" transform="translate(127.246094 0)"/>
       <use xlink:href="#DejaVuSans-30" transform="translate(190.869141 0)"/>
      </g>
     </g>
    </g>
    <g id="xtick_4">
     <g id="line2d_4">
      <g>
       <use xlink:href="#m7d65969a6c" x="307.886066" y="203.741978" style="stroke: #000000; stroke-width: 0.8"/>
      </g>
     </g>
     <g id="text_4">
      <!-- 6000 -->
      <g transform="translate(295.161066 218.340415) scale(0.1 -0.1)">
       <defs>
        <path id="DejaVuSans-36" d="M 2113 2584 
Q 1688 2584 1439 2293 
Q 1191 2003 1191 1497 
Q 1191 994 1439 701 
Q 1688 409 2113 409 
Q 2538 409 2786 701 
Q 3034 994 3034 1497 
Q 3034 2003 2786 2293 
Q 2538 2584 2113 2584 
z
M 3366 4563 
L 3366 3988 
Q 3128 4100 2886 4159 
Q 2644 4219 2406 4219 
Q 1781 4219 1451 3797 
Q 1122 3375 1075 2522 
Q 1259 2794 1537 2939 
Q 1816 3084 2150 3084 
Q 2853 3084 3261 2657 
Q 3669 2231 3669 1497 
Q 3669 778 3244 343 
Q 2819 -91 2113 -91 
Q 1303 -91 875 529 
Q 447 1150 447 2328 
Q 447 3434 972 4092 
Q 1497 4750 2381 4750 
Q 2619 4750 2861 4703 
Q 3103 4656 3366 4563 
z
" transform="scale(0.015625)"/>
       </defs>
       <use xlink:href="#DejaVuSans-36"/>
       <use xlink:href="#DejaVuSans-30" transform="translate(63.623047 0)"/>
       <use xlink:href="#DejaVuSans-30" transform="translate(127.246094 0)"/>
       <use xlink:href="#DejaVuSans-30" transform="translate(190.869141 0)"/>
      </g>
     </g>
    </g>
    <g id="xtick_5">
     <g id="line2d_5">
      <g>
       <use xlink:href="#m7d65969a6c" x="385.903845" y="203.741978" style="stroke: #000000; stroke-width: 0.8"/>
      </g>
     </g>
     <g id="text_5">
      <!-- 8000 -->
      <g transform="translate(373.178845 218.340415) scale(0.1 -0.1)">
       <defs>
        <path id="DejaVuSans-38" d="M 2034 2216 
Q 1584 2216 1326 1975 
Q 1069 1734 1069 1313 
Q 1069 891 1326 650 
Q 1584 409 2034 409 
Q 2484 409 2743 651 
Q 3003 894 3003 1313 
Q 3003 1734 2745 1975 
Q 2488 2216 2034 2216 
z
M 1403 2484 
Q 997 2584 770 2862 
Q 544 3141 544 3541 
Q 544 4100 942 4425 
Q 1341 4750 2034 4750 
Q 2731 4750 3128 4425 
Q 3525 4100 3525 3541 
Q 3525 3141 3298 2862 
Q 3072 2584 2669 2484 
Q 3125 2378 3379 2068 
Q 3634 1759 3634 1313 
Q 3634 634 3220 271 
Q 2806 -91 2034 -91 
Q 1263 -91 848 271 
Q 434 634 434 1313 
Q 434 1759 690 2068 
Q 947 2378 1403 2484 
z
M 1172 3481 
Q 1172 3119 1398 2916 
Q 1625 2713 2034 2713 
Q 2441 2713 2670 2916 
Q 2900 3119 2900 3481 
Q 2900 3844 2670 4047 
Q 2441 4250 2034 4250 
Q 1625 4250 1398 4047 
Q 1172 3844 1172 3481 
z
" transform="scale(0.015625)"/>
       </defs>
       <use xlink:href="#DejaVuSans-38"/>
       <use xlink:href="#DejaVuSans-30" transform="translate(63.623047 0)"/>
       <use xlink:href="#DejaVuSans-30" transform="translate(127.246094 0)"/>
       <use xlink:href="#DejaVuSans-30" transform="translate(190.869141 0)"/>
      </g>
     </g>
    </g>
   </g>
   <g id="matplotlib.axis_2">
    <g id="ytick_1">
     <g id="line2d_6">
      <defs>
       <path id="m8b1fcd216a" d="M 0 0 
L -3.5 0 
" style="stroke: #000000; stroke-width: 0.8"/>
      </defs>
      <g>
       <use xlink:href="#m8b1fcd216a" x="57.6" y="197.512029" style="stroke: #000000; stroke-width: 0.8"/>
      </g>
     </g>
     <g id="text_6">
      <!-- −1000 -->
      <g transform="translate(16.770313 201.311248) scale(0.1 -0.1)">
       <defs>
        <path id="DejaVuSans-2212" d="M 678 2272 
L 4684 2272 
L 4684 1741 
L 678 1741 
L 678 2272 
z
" transform="scale(0.015625)"/>
        <path id="DejaVuSans-31" d="M 794 531 
L 1825 531 
L 1825 4091 
L 703 3866 
L 703 4441 
L 1819 4666 
L 2450 4666 
L 2450 531 
L 3481 531 
L 3481 0 
L 794 0 
L 794 531 
z
" transform="scale(0.015625)"/>
       </defs>
       <use xlink:href="#DejaVuSans-2212"/>
       <use xlink:href="#DejaVuSans-31" transform="translate(83.789062 0)"/>
       <use xlink:href="#DejaVuSans-30" transform="translate(147.412109 0)"/>
       <use xlink:href="#DejaVuSans-30" transform="translate(211.035156 0)"/>
       <use xlink:href="#DejaVuSans-30" transform="translate(274.658203 0)"/>
      </g>
     </g>
    </g>
    <g id="ytick_2">
     <g id="line2d_7">
      <g>
       <use xlink:href="#m8b1fcd216a" x="57.6" y="158.503139" style="stroke: #000000; stroke-width: 0.8"/>
      </g>
     </g>
     <g id="text_7">
      <!-- 0 -->
      <g transform="translate(44.2375 162.302358) scale(0.1 -0.1)">
       <use xlink:href="#DejaVuSans-30"/>
      </g>
     </g>
    </g>
   </g>
   <g id="line2d_8">
    <path d="M 73.832727 158.503139 
L 76.913031 158.000147 
L 78.984588 158.085569 
L 80.0218 158.148851 
L 86.237177 157.570769 
L 87.226065 157.360138 
L 95.264907 150.756094 
L 98.371097 150.463422 
L 99.341999 150.581856 
L 100.959344 151.890921 
L 101.544466 152.665714 
L 102.649847 164.056242 
L 104.154579 166.778535 
L 105.191008 168.582771 
L 106.47555 171.412649 
L 108.656248 174.956993 
L 112.551506 178.399532 
L 113.339808 179.0765 
L 118.033809 181.316344 
L 122.77077 183.465831 
L 130.018487 182.804856 
L 132.090147 182.610742 
L 133.028474 182.835752 
L 134.644603 184.146317 
L 135.279892 184.934819 
L 136.601747 187.75607 
L 139.920905 191.761351 
L 140.442074 192.645964 
L 142.311809 197.500156 
L 142.925426 198.29677 
L 144.541627 199.607247 
L 145.456503 200.063635 
L 148.434266 200.998623 
L 149.450626 201.086161 
L 152.558272 200.796658 
L 155.433901 199.603624 
L 157.342331 198.774559 
L 158.788441 197.298171 
L 163.700221 191.921347 
L 164.015237 191.002008 
L 164.037604 186.8406 
L 163.854806 185.854585 
L 161.060921 181.466727 
L 160.726297 180.511923 
L 160.324769 176.369871 
L 160.713204 175.43469 
L 162.236342 172.722754 
L 163.190533 172.308166 
L 164.173194 172.108978 
L 170.348022 173.023634 
L 172.002558 174.247422 
L 175.984412 177.565565 
L 178.292205 183.350019 
L 181.831405 187.162257 
L 185.977395 187.099386 
L 189.097651 187.026749 
L 190.017185 187.355352 
L 193.2587 189.959289 
L 197.188004 191.329832 
L 198.93473 192.44106 
L 201.492595 194.229523 
L 202.423354 194.638073 
L 205.494524 195.194121 
L 206.387754 195.66325 
L 207.221261 196.232663 
L 213.426125 195.596701 
L 224.430583 192.455377 
L 237.641458 184.150459 
L 241.163545 181.933993 
L 242.108468 181.569346 
L 247.28018 181.137279 
L 250.197843 182.245662 
L 251.206561 182.348598 
L 253.27824 182.154692 
L 254.267766 181.903901 
L 257.972858 180.036971 
L 281.307473 174.739223 
L 282.228063 174.337498 
L 284.447541 172.143144 
L 284.984594 171.338383 
L 284.586388 168.292234 
L 275.661288 162.946304 
L 275.228851 162.120764 
L 275.028023 160.049744 
L 281.131735 151.630445 
L 281.907545 150.966445 
L 285.455247 148.791215 
L 288.460977 147.969839 
L 289.47298 148.032781 
L 298.605499 150.098832 
L 299.418674 150.669045 
L 302.19438 153.765908 
L 307.265997 157.40511 
L 308.258522 157.616708 
L 320.661011 158.672921 
L 326.41705 161.088103 
L 328.472707 161.334338 
L 332.619686 161.681301 
L 335.644296 160.947295 
L 338.664242 160.159134 
L 339.533757 159.679319 
L 341.542798 157.290798 
L 342.469825 156.98666 
L 344.541699 156.794839 
L 345.566581 156.868791 
L 354.699479 158.93316 
L 355.5374 159.443923 
L 359.418161 164.333175 
L 360.978942 165.698443 
L 365.020123 168.973798 
L 366.476497 173.960652 
L 366.736492 174.965741 
L 367.637904 184.285554 
L 367.897913 185.251526 
L 370.655917 188.367811 
L 371.52271 190.246286 
L 372.718785 193.12911 
L 373.250412 193.990728 
L 374.8882 195.226887 
L 390.329311 193.130947 
L 393.876401 190.954717 
L 394.632027 190.263434 
L 398.487273 185.354038 
L 398.487273 185.354038 
" clip-path="url(#p81239d3203)" style="fill: none; stroke: #1f77b4; stroke-width: 1.5; stroke-linecap: square"/>
   </g>
   <g id="line2d_9">
    <path d="M 73.832727 158.503139 
L 74.682632 158.043323 
L 76.469088 157.332873 
L 77.509455 157.332873 
L 78.310761 156.755728 
L 79.267029 156.552695 
L 82.388131 156.552695 
L 84.095718 157.453552 
L 84.862911 158.113051 
L 86.458905 159.283317 
L 87.266829 159.844485 
L 88.216479 160.063495 
L 89.974053 160.843673 
L 92.054787 160.843673 
L 93.787436 160.00332 
L 94.637341 159.543504 
L 96.61426 157.332873 
L 98.210254 156.162606 
L 99.089041 155.772517 
L 99.853824 155.107199 
L 100.817983 154.923217 
L 101.667888 154.463401 
L 102.604189 154.212162 
L 104.68357 154.221824 
L 106.684245 154.793446 
L 107.60409 155.216057 
L 109.811042 157.423009 
L 110.110995 158.339131 
L 110.110995 159.379498 
L 109.913316 160.360013 
L 108.759133 162.091288 
L 108.080767 162.873901 
L 107.770461 163.785736 
L 107.770461 166.906837 
L 108.10423 167.808953 
L 110.311182 170.015904 
L 111.506648 171.60146 
L 113.7136 173.808412 
L 114.173416 174.658317 
L 114.792062 175.442433 
L 115.172783 176.247501 
L 117.912773 177.675196 
L 118.413389 178.508201 
L 119.893585 179.958029 
L 123.427756 181.883454 
L 126.115459 183.07874 
L 128.196193 183.07874 
L 129.119023 183.362501 
L 131.155714 183.468829 
L 137.397917 183.468829 
L 138.276704 183.858918 
L 140.357438 183.858918 
L 141.260208 184.191108 
L 142.110113 184.650924 
L 143.581414 186.122225 
L 143.765395 187.086384 
L 144.438818 187.847811 
L 144.438818 192.009279 
L 144.048729 192.888066 
L 143.548534 193.721246 
L 142.878462 194.48406 
L 142.628902 195.421056 
L 142.488373 196.403214 
L 142.488373 198.483948 
L 143.270169 198.995014 
L 145.134357 199.767924 
L 145.978085 200.242652 
L 146.948421 200.411722 
L 147.735659 201.022829 
L 153.977862 201.022829 
L 154.890205 200.713753 
L 155.74011 200.253937 
L 157.782684 200.161808 
L 159.482494 199.242176 
L 160.218144 198.506525 
L 161.068049 198.046709 
L 162.032209 197.862728 
L 162.767859 197.127077 
L 163.644519 196.731851 
L 164.467669 196.207445 
L 168.145922 192.529192 
L 168.605739 191.679287 
L 168.624329 190.64662 
L 169.014418 189.767833 
L 169.014418 186.646732 
L 168.624329 184.727578 
L 167.951245 183.966011 
L 167.767264 183.001852 
L 167.454063 182.091217 
L 167.454063 181.05085 
L 167.844152 180.172063 
L 167.844152 177.050962 
L 168.152899 176.138482 
L 168.935236 175.45978 
L 171.585281 173.812462 
L 173.639464 173.716606 
L 175.397038 174.496784 
L 176.357128 174.737616 
L 177.972326 176.043003 
L 180.914929 178.985606 
L 181.887352 180.663549 
L 183.305862 182.156717 
L 184.227885 183.855536 
L 184.617974 185.774691 
L 184.617974 188.895792 
L 185.008063 189.774579 
L 185.513366 190.605643 
L 186.363271 191.065459 
L 186.958508 191.859271 
L 187.795811 192.190335 
L 191.90426 192.830962 
L 194.21746 190.880518 
L 195.232295 190.723181 
L 196.145753 190.275229 
L 197.113679 190.10034 
L 198.154046 190.10034 
L 199.032833 189.710251 
L 199.791838 190.23598 
L 200.946022 191.967256 
L 201.666373 192.715449 
L 202.497313 193.221051 
L 203.251928 193.910916 
L 204.972093 194.781407 
L 205.915898 195.01453 
L 206.729667 195.561585 
L 207.770034 195.561585 
L 208.579867 196.118144 
L 209.527608 196.341763 
L 210.567975 196.341763 
L 212.325549 197.12194 
L 213.365916 197.12194 
L 214.250569 196.746013 
L 215.285071 196.731851 
L 216.163858 196.341763 
L 217.204225 196.341763 
L 217.992952 195.734252 
L 218.957112 195.55027 
L 219.692763 194.814619 
L 220.719373 194.781407 
L 221.621081 194.446656 
L 222.476947 194.001229 
L 223.435146 193.802858 
L 224.23452 193.221051 
L 225.134956 192.883226 
L 225.984861 192.42341 
L 226.720511 191.68776 
L 227.749668 191.660696 
L 229.507242 190.880518 
L 230.34864 190.400164 
L 231.084291 189.664513 
L 231.982023 189.320162 
L 232.784101 188.744881 
L 234.456804 187.759807 
L 235.219562 187.089598 
L 236.151407 185.419273 
L 237.103353 185.205807 
L 238.029991 184.779179 
L 239.01697 184.450186 
L 240.02469 184.249007 
L 240.870467 183.779226 
L 242.341769 182.307925 
L 243.305928 182.123943 
L 246.248531 179.181341 
L 247.21269 178.997359 
L 248.721866 177.617495 
L 249.762233 177.617495 
L 250.498056 176.88226 
L 251.519807 176.837318 
L 254.53164 177.617495 
L 256.612375 177.617495 
L 257.398416 178.231491 
L 260.289103 178.787762 
L 261.16789 179.177851 
L 261.990705 179.703068 
L 262.925464 179.958029 
L 263.919023 180.071032 
L 264.683038 180.738207 
L 265.618833 180.990664 
L 266.440612 181.518384 
L 267.480979 181.518384 
L 268.359766 181.908473 
L 269.361217 182.002425 
L 270.27892 182.298562 
L 272.359654 182.298562 
L 275.319175 182.688651 
L 277.076749 181.908473 
L 278.117116 181.908473 
L 278.995903 181.518384 
L 280.011291 181.412572 
L 280.941824 180.947305 
L 281.765058 180.33317 
L 282.650036 179.958029 
L 290.972973 179.958029 
L 291.863669 180.319366 
L 292.59932 181.055017 
L 294.29913 181.974649 
L 295.205328 182.298562 
L 296.245695 182.298562 
L 297.124482 182.688651 
L 298.041513 182.390893 
L 299.043636 182.298562 
L 299.694199 181.68025 
L 300.922629 180.044268 
L 301.588656 179.245036 
L 300.963454 177.304581 
L 298.830225 171.4382 
L 298.606569 170.477843 
L 300.993014 167.068635 
L 302.746127 166.3737 
L 304.408282 165.134651 
L 306.489016 165.134651 
L 307.405344 164.835195 
L 308.255249 165.113745 
L 309.125377 165.52474 
L 310.165744 165.52474 
L 311.107118 165.851693 
L 313.693195 167.475184 
L 315.759471 167.522935 
L 316.625109 168.100027 
L 317.510002 168.517164 
L 318.335651 169.03554 
L 320.173971 169.230479 
L 321.133592 169.03554 
L 323.214326 169.03554 
L 324.030609 168.494552 
L 324.76626 167.758902 
L 325.689107 167.475184 
L 326.232343 166.670809 
L 328.918991 161.265637 
L 329.654642 160.529987 
L 330.571274 160.063495 
L 332.025701 158.893228 
L 336.187169 158.893228 
L 337.088443 159.229027 
L 337.944743 159.673406 
L 338.927182 159.946376 
L 341.77928 161.213975 
L 344.397985 159.954591 
L 345.210375 159.304679 
L 346.106413 158.893228 
L 347.580164 157.427842 
L 349.621561 157.332873 
L 351.702295 157.332873 
L 352.677756 157.547243 
L 353.546811 158.113051 
L 355.623958 158.145728 
L 358.670737 158.822789 
L 359.217925 159.513531 
L 360.909276 160.453584 
L 361.833096 160.654417 
L 363.425353 163.33087 
L 363.668778 164.270407 
L 364.61592 166.361079 
L 365.380488 165.914829 
L 365.839448 166.685618 
L 366.982692 170.686969 
L 366.950696 171.604955 
L 366.03812 171.780566 
L 366.78949 172.356561 
L 367.390946 173.147797 
L 367.574928 174.111956 
L 368.455894 174.496784 
L 368.772787 175.252397 
L 369.130023 185.648306 
L 369.059925 186.659638 
L 368.739934 187.56746 
L 368.739934 189.648194 
L 369.130023 190.526981 
L 369.437183 191.494838 
L 369.902449 192.42537 
L 370.081926 193.392777 
L 371.587471 194.781407 
L 372.627838 194.781407 
L 374.56068 195.54935 
L 375.59869 195.561585 
L 376.496291 195.906253 
L 377.517844 195.951674 
L 378.396631 196.341763 
L 383.58817 196.316904 
L 384.323821 195.581254 
L 385.356041 195.561585 
L 387.113615 194.781407 
L 387.95195 194.293658 
L 388.6876 193.558008 
L 389.588396 193.221051 
L 390.38741 192.638375 
L 392.594362 190.431424 
L 393.444267 189.971607 
L 394.179918 189.235957 
L 395.029823 188.776141 
L 395.972371 188.539985 
L 397.465284 187.120858 
L 398.429443 186.936876 
L 399.165094 186.201226 
L 399.556957 185.323174 
L 399.556957 185.323174 
" clip-path="url(#p81239d3203)" style="fill: none; stroke: #ff7f0e; stroke-width: 1.5; stroke-linecap: square"/>
   </g>
   <g id="patch_3">
    <path d="M 57.6 203.741978 
L 57.6 145.314022 
" style="fill: none; stroke: #000000; stroke-width: 0.8; stroke-linejoin: miter; stroke-linecap: square"/>
   </g>
   <g id="patch_4">
    <path d="M 414.72 203.741978 
L 414.72 145.314022 
" style="fill: none; stroke: #000000; stroke-width: 0.8; stroke-linejoin: miter; stroke-linecap: square"/>
   </g>
   <g id="patch_5">
    <path d="M 57.6 203.741978 
L 414.72 203.741978 
" style="fill: none; stroke: #000000; stroke-width: 0.8; stroke-linejoin: miter; stroke-linecap: square"/>
   </g>
   <g id="patch_6">
    <path d="M 57.6 145.314022 
L 414.72 145.314022 
" style="fill: none; stroke: #000000; stroke-width: 0.8; stroke-linejoin: miter; stroke-linecap: square"/>
   </g>
   <g id="text_8">
    <!-- Planforms of the Arkansas River east of Pueblo -->
    <g transform="translate(95.625 139.314022) scale(0.12 -0.12)">
     <defs>
      <path id="DejaVuSans-50" d="M 1259 4147 
L 1259 2394 
L 2053 2394 
Q 2494 2394 2734 2622 
Q 2975 2850 2975 3272 
Q 2975 3691 2734 3919 
Q 2494 4147 2053 4147 
L 1259 4147 
z
M 628 4666 
L 2053 4666 
Q 2838 4666 3239 4311 
Q 3641 3956 3641 3272 
Q 3641 2581 3239 2228 
Q 2838 1875 2053 1875 
L 1259 1875 
L 1259 0 
L 628 0 
L 628 4666 
z
" transform="scale(0.015625)"/>
      <path id="DejaVuSans-6c" d="M 603 4863 
L 1178 4863 
L 1178 0 
L 603 0 
L 603 4863 
z
" transform="scale(0.015625)"/>
      <path id="DejaVuSans-61" d="M 2194 1759 
Q 1497 1759 1228 1600 
Q 959 1441 959 1056 
Q 959 750 1161 570 
Q 1363 391 1709 391 
Q 2188 391 2477 730 
Q 2766 1069 2766 1631 
L 2766 1759 
L 2194 1759 
z
M 3341 1997 
L 3341 0 
L 2766 0 
L 2766 531 
Q 2569 213 2275 61 
Q 1981 -91 1556 -91 
Q 1019 -91 701 211 
Q 384 513 384 1019 
Q 384 1609 779 1909 
Q 1175 2209 1959 2209 
L 2766 2209 
L 2766 2266 
Q 2766 2663 2505 2880 
Q 2244 3097 1772 3097 
Q 1472 3097 1187 3025 
Q 903 2953 641 2809 
L 641 3341 
Q 956 3463 1253 3523 
Q 1550 3584 1831 3584 
Q 2591 3584 2966 3190 
Q 3341 2797 3341 1997 
z
" transform="scale(0.015625)"/>
      <path id="DejaVuSans-6e" d="M 3513 2113 
L 3513 0 
L 2938 0 
L 2938 2094 
Q 2938 2591 2744 2837 
Q 2550 3084 2163 3084 
Q 1697 3084 1428 2787 
Q 1159 2491 1159 1978 
L 1159 0 
L 581 0 
L 581 3500 
L 1159 3500 
L 1159 2956 
Q 1366 3272 1645 3428 
Q 1925 3584 2291 3584 
Q 2894 3584 3203 3211 
Q 3513 2838 3513 2113 
z
" transform="scale(0.015625)"/>
      <path id="DejaVuSans-66" d="M 2375 4863 
L 2375 4384 
L 1825 4384 
Q 1516 4384 1395 4259 
Q 1275 4134 1275 3809 
L 1275 3500 
L 2222 3500 
L 2222 3053 
L 1275 3053 
L 1275 0 
L 697 0 
L 697 3053 
L 147 3053 
L 147 3500 
L 697 3500 
L 697 3744 
Q 697 4328 969 4595 
Q 1241 4863 1831 4863 
L 2375 4863 
z
" transform="scale(0.015625)"/>
      <path id="DejaVuSans-6f" d="M 1959 3097 
Q 1497 3097 1228 2736 
Q 959 2375 959 1747 
Q 959 1119 1226 758 
Q 1494 397 1959 397 
Q 2419 397 2687 759 
Q 2956 1122 2956 1747 
Q 2956 2369 2687 2733 
Q 2419 3097 1959 3097 
z
M 1959 3584 
Q 2709 3584 3137 3096 
Q 3566 2609 3566 1747 
Q 3566 888 3137 398 
Q 2709 -91 1959 -91 
Q 1206 -91 779 398 
Q 353 888 353 1747 
Q 353 2609 779 3096 
Q 1206 3584 1959 3584 
z
" transform="scale(0.015625)"/>
      <path id="DejaVuSans-72" d="M 2631 2963 
Q 2534 3019 2420 3045 
Q 2306 3072 2169 3072 
Q 1681 3072 1420 2755 
Q 1159 2438 1159 1844 
L 1159 0 
L 581 0 
L 581 3500 
L 1159 3500 
L 1159 2956 
Q 1341 3275 1631 3429 
Q 1922 3584 2338 3584 
Q 2397 3584 2469 3576 
Q 2541 3569 2628 3553 
L 2631 2963 
z
" transform="scale(0.015625)"/>
      <path id="DejaVuSans-6d" d="M 3328 2828 
Q 3544 3216 3844 3400 
Q 4144 3584 4550 3584 
Q 5097 3584 5394 3201 
Q 5691 2819 5691 2113 
L 5691 0 
L 5113 0 
L 5113 2094 
Q 5113 2597 4934 2840 
Q 4756 3084 4391 3084 
Q 3944 3084 3684 2787 
Q 3425 2491 3425 1978 
L 3425 0 
L 2847 0 
L 2847 2094 
Q 2847 2600 2669 2842 
Q 2491 3084 2119 3084 
Q 1678 3084 1418 2786 
Q 1159 2488 1159 1978 
L 1159 0 
L 581 0 
L 581 3500 
L 1159 3500 
L 1159 2956 
Q 1356 3278 1631 3431 
Q 1906 3584 2284 3584 
Q 2666 3584 2933 3390 
Q 3200 3197 3328 2828 
z
" transform="scale(0.015625)"/>
      <path id="DejaVuSans-73" d="M 2834 3397 
L 2834 2853 
Q 2591 2978 2328 3040 
Q 2066 3103 1784 3103 
Q 1356 3103 1142 2972 
Q 928 2841 928 2578 
Q 928 2378 1081 2264 
Q 1234 2150 1697 2047 
L 1894 2003 
Q 2506 1872 2764 1633 
Q 3022 1394 3022 966 
Q 3022 478 2636 193 
Q 2250 -91 1575 -91 
Q 1294 -91 989 -36 
Q 684 19 347 128 
L 347 722 
Q 666 556 975 473 
Q 1284 391 1588 391 
Q 1994 391 2212 530 
Q 2431 669 2431 922 
Q 2431 1156 2273 1281 
Q 2116 1406 1581 1522 
L 1381 1569 
Q 847 1681 609 1914 
Q 372 2147 372 2553 
Q 372 3047 722 3315 
Q 1072 3584 1716 3584 
Q 2034 3584 2315 3537 
Q 2597 3491 2834 3397 
z
" transform="scale(0.015625)"/>
      <path id="DejaVuSans-20" transform="scale(0.015625)"/>
      <path id="DejaVuSans-74" d="M 1172 4494 
L 1172 3500 
L 2356 3500 
L 2356 3053 
L 1172 3053 
L 1172 1153 
Q 1172 725 1289 603 
Q 1406 481 1766 481 
L 2356 481 
L 2356 0 
L 1766 0 
Q 1100 0 847 248 
Q 594 497 594 1153 
L 594 3053 
L 172 3053 
L 172 3500 
L 594 3500 
L 594 4494 
L 1172 4494 
z
" transform="scale(0.015625)"/>
      <path id="DejaVuSans-68" d="M 3513 2113 
L 3513 0 
L 2938 0 
L 2938 2094 
Q 2938 2591 2744 2837 
Q 2550 3084 2163 3084 
Q 1697 3084 1428 2787 
Q 1159 2491 1159 1978 
L 1159 0 
L 581 0 
L 581 4863 
L 1159 4863 
L 1159 2956 
Q 1366 3272 1645 3428 
Q 1925 3584 2291 3584 
Q 2894 3584 3203 3211 
Q 3513 2838 3513 2113 
z
" transform="scale(0.015625)"/>
      <path id="DejaVuSans-65" d="M 3597 1894 
L 3597 1613 
L 953 1613 
Q 991 1019 1311 708 
Q 1631 397 2203 397 
Q 2534 397 2845 478 
Q 3156 559 3463 722 
L 3463 178 
Q 3153 47 2828 -22 
Q 2503 -91 2169 -91 
Q 1331 -91 842 396 
Q 353 884 353 1716 
Q 353 2575 817 3079 
Q 1281 3584 2069 3584 
Q 2775 3584 3186 3129 
Q 3597 2675 3597 1894 
z
M 3022 2063 
Q 3016 2534 2758 2815 
Q 2500 3097 2075 3097 
Q 1594 3097 1305 2825 
Q 1016 2553 972 2059 
L 3022 2063 
z
" transform="scale(0.015625)"/>
      <path id="DejaVuSans-41" d="M 2188 4044 
L 1331 1722 
L 3047 1722 
L 2188 4044 
z
M 1831 4666 
L 2547 4666 
L 4325 0 
L 3669 0 
L 3244 1197 
L 1141 1197 
L 716 0 
L 50 0 
L 1831 4666 
z
" transform="scale(0.015625)"/>
      <path id="DejaVuSans-6b" d="M 581 4863 
L 1159 4863 
L 1159 1991 
L 2875 3500 
L 3609 3500 
L 1753 1863 
L 3688 0 
L 2938 0 
L 1159 1709 
L 1159 0 
L 581 0 
L 581 4863 
z
" transform="scale(0.015625)"/>
      <path id="DejaVuSans-52" d="M 2841 2188 
Q 3044 2119 3236 1894 
Q 3428 1669 3622 1275 
L 4263 0 
L 3584 0 
L 2988 1197 
Q 2756 1666 2539 1819 
Q 2322 1972 1947 1972 
L 1259 1972 
L 1259 0 
L 628 0 
L 628 4666 
L 2053 4666 
Q 2853 4666 3247 4331 
Q 3641 3997 3641 3322 
Q 3641 2881 3436 2590 
Q 3231 2300 2841 2188 
z
M 1259 4147 
L 1259 2491 
L 2053 2491 
Q 2509 2491 2742 2702 
Q 2975 2913 2975 3322 
Q 2975 3731 2742 3939 
Q 2509 4147 2053 4147 
L 1259 4147 
z
" transform="scale(0.015625)"/>
      <path id="DejaVuSans-69" d="M 603 3500 
L 1178 3500 
L 1178 0 
L 603 0 
L 603 3500 
z
M 603 4863 
L 1178 4863 
L 1178 4134 
L 603 4134 
L 603 4863 
z
" transform="scale(0.015625)"/>
      <path id="DejaVuSans-76" d="M 191 3500 
L 800 3500 
L 1894 563 
L 2988 3500 
L 3597 3500 
L 2284 0 
L 1503 0 
L 191 3500 
z
" transform="scale(0.015625)"/>
      <path id="DejaVuSans-75" d="M 544 1381 
L 544 3500 
L 1119 3500 
L 1119 1403 
Q 1119 906 1312 657 
Q 1506 409 1894 409 
Q 2359 409 2629 706 
Q 2900 1003 2900 1516 
L 2900 3500 
L 3475 3500 
L 3475 0 
L 2900 0 
L 2900 538 
Q 2691 219 2414 64 
Q 2138 -91 1772 -91 
Q 1169 -91 856 284 
Q 544 659 544 1381 
z
M 1991 3584 
L 1991 3584 
z
" transform="scale(0.015625)"/>
      <path id="DejaVuSans-62" d="M 3116 1747 
Q 3116 2381 2855 2742 
Q 2594 3103 2138 3103 
Q 1681 3103 1420 2742 
Q 1159 2381 1159 1747 
Q 1159 1113 1420 752 
Q 1681 391 2138 391 
Q 2594 391 2855 752 
Q 3116 1113 3116 1747 
z
M 1159 2969 
Q 1341 3281 1617 3432 
Q 1894 3584 2278 3584 
Q 2916 3584 3314 3078 
Q 3713 2572 3713 1747 
Q 3713 922 3314 415 
Q 2916 -91 2278 -91 
Q 1894 -91 1617 61 
Q 1341 213 1159 525 
L 1159 0 
L 581 0 
L 581 4863 
L 1159 4863 
L 1159 2969 
z
" transform="scale(0.015625)"/>
     </defs>
     <use xlink:href="#DejaVuSans-50"/>
     <use xlink:href="#DejaVuSans-6c" transform="translate(60.302734 0)"/>
     <use xlink:href="#DejaVuSans-61" transform="translate(88.085938 0)"/>
     <use xlink:href="#DejaVuSans-6e" transform="translate(149.365234 0)"/>
     <use xlink:href="#DejaVuSans-66" transform="translate(212.744141 0)"/>
     <use xlink:href="#DejaVuSans-6f" transform="translate(247.949219 0)"/>
     <use xlink:href="#DejaVuSans-72" transform="translate(309.130859 0)"/>
     <use xlink:href="#DejaVuSans-6d" transform="translate(348.494141 0)"/>
     <use xlink:href="#DejaVuSans-73" transform="translate(445.90625 0)"/>
     <use xlink:href="#DejaVuSans-20" transform="translate(498.005859 0)"/>
     <use xlink:href="#DejaVuSans-6f" transform="translate(529.792969 0)"/>
     <use xlink:href="#DejaVuSans-66" transform="translate(590.974609 0)"/>
     <use xlink:href="#DejaVuSans-20" transform="translate(626.179688 0)"/>
     <use xlink:href="#DejaVuSans-74" transform="translate(657.966797 0)"/>
     <use xlink:href="#DejaVuSans-68" transform="translate(697.175781 0)"/>
     <use xlink:href="#DejaVuSans-65" transform="translate(760.554688 0)"/>
     <use xlink:href="#DejaVuSans-20" transform="translate(822.078125 0)"/>
     <use xlink:href="#DejaVuSans-41" transform="translate(853.865234 0)"/>
     <use xlink:href="#DejaVuSans-72" transform="translate(922.273438 0)"/>
     <use xlink:href="#DejaVuSans-6b" transform="translate(963.386719 0)"/>
     <use xlink:href="#DejaVuSans-61" transform="translate(1019.546875 0)"/>
     <use xlink:href="#DejaVuSans-6e" transform="translate(1080.826172 0)"/>
     <use xlink:href="#DejaVuSans-73" transform="translate(1144.205078 0)"/>
     <use xlink:href="#DejaVuSans-61" transform="translate(1196.304688 0)"/>
     <use xlink:href="#DejaVuSans-73" transform="translate(1257.583984 0)"/>
     <use xlink:href="#DejaVuSans-20" transform="translate(1309.683594 0)"/>
     <use xlink:href="#DejaVuSans-52" transform="translate(1341.470703 0)"/>
     <use xlink:href="#DejaVuSans-69" transform="translate(1410.953125 0)"/>
     <use xlink:href="#DejaVuSans-76" transform="translate(1438.736328 0)"/>
     <use xlink:href="#DejaVuSans-65" transform="translate(1497.916016 0)"/>
     <use xlink:href="#DejaVuSans-72" transform="translate(1559.439453 0)"/>
     <use xlink:href="#DejaVuSans-20" transform="translate(1600.552734 0)"/>
     <use xlink:href="#DejaVuSans-65" transform="translate(1632.339844 0)"/>
     <use xlink:href="#DejaVuSans-61" transform="translate(1693.863281 0)"/>
     <use xlink:href="#DejaVuSans-73" transform="translate(1755.142578 0)"/>
     <use xlink:href="#DejaVuSans-74" transform="translate(1807.242188 0)"/>
     <use xlink:href="#DejaVuSans-20" transform="translate(1846.451172 0)"/>
     <use xlink:href="#DejaVuSans-6f" transform="translate(1878.238281 0)"/>
     <use xlink:href="#DejaVuSans-66" transform="translate(1939.419922 0)"/>
     <use xlink:href="#DejaVuSans-20" transform="translate(1974.625 0)"/>
     <use xlink:href="#DejaVuSans-50" transform="translate(2006.412109 0)"/>
     <use xlink:href="#DejaVuSans-75" transform="translate(2064.964844 0)"/>
     <use xlink:href="#DejaVuSans-65" transform="translate(2128.34375 0)"/>
     <use xlink:href="#DejaVuSans-62" transform="translate(2189.867188 0)"/>
     <use xlink:href="#DejaVuSans-6c" transform="translate(2253.34375 0)"/>
     <use xlink:href="#DejaVuSans-6f" transform="translate(2281.126953 0)"/>
    </g>
   </g>
   <g id="legend_1">
    <g id="patch_7">
     <path d="M 213.18 175.199022 
L 259.14 175.199022 
Q 260.74 175.199022 260.74 173.599022 
L 260.74 150.914022 
Q 260.74 149.314022 259.14 149.314022 
L 213.18 149.314022 
Q 211.58 149.314022 211.58 150.914022 
L 211.58 173.599022 
Q 211.58 175.199022 213.18 175.199022 
z
" style="fill: #ffffff; opacity: 0.8; stroke: #cccccc; stroke-linejoin: miter"/>
    </g>
    <g id="line2d_10">
     <path d="M 214.78 155.792772 
L 222.78 155.792772 
L 230.78 155.792772 
" style="fill: none; stroke: #1f77b4; stroke-width: 1.5; stroke-linecap: square"/>
    </g>
    <g id="text_9">
     <!-- 1980 -->
     <g transform="translate(237.18 158.592772) scale(0.08 -0.08)">
      <defs>
       <path id="DejaVuSans-39" d="M 703 97 
L 703 672 
Q 941 559 1184 500 
Q 1428 441 1663 441 
Q 2288 441 2617 861 
Q 2947 1281 2994 2138 
Q 2813 1869 2534 1725 
Q 2256 1581 1919 1581 
Q 1219 1581 811 2004 
Q 403 2428 403 3163 
Q 403 3881 828 4315 
Q 1253 4750 1959 4750 
Q 2769 4750 3195 4129 
Q 3622 3509 3622 2328 
Q 3622 1225 3098 567 
Q 2575 -91 1691 -91 
Q 1453 -91 1209 -44 
Q 966 3 703 97 
z
M 1959 2075 
Q 2384 2075 2632 2365 
Q 2881 2656 2881 3163 
Q 2881 3666 2632 3958 
Q 2384 4250 1959 4250 
Q 1534 4250 1286 3958 
Q 1038 3666 1038 3163 
Q 1038 2656 1286 2365 
Q 1534 2075 1959 2075 
z
" transform="scale(0.015625)"/>
      </defs>
      <use xlink:href="#DejaVuSans-31"/>
      <use xlink:href="#DejaVuSans-39" transform="translate(63.623047 0)"/>
      <use xlink:href="#DejaVuSans-38" transform="translate(127.246094 0)"/>
      <use xlink:href="#DejaVuSans-30" transform="translate(190.869141 0)"/>
     </g>
    </g>
    <g id="line2d_11">
     <path d="M 214.78 167.535272 
L 222.78 167.535272 
L 230.78 167.535272 
" style="fill: none; stroke: #ff7f0e; stroke-width: 1.5; stroke-linecap: square"/>
    </g>
    <g id="text_10">
     <!-- 2023 -->
     <g transform="translate(237.18 170.335272) scale(0.08 -0.08)">
      <defs>
       <path id="DejaVuSans-33" d="M 2597 2516 
Q 3050 2419 3304 2112 
Q 3559 1806 3559 1356 
Q 3559 666 3084 287 
Q 2609 -91 1734 -91 
Q 1441 -91 1130 -33 
Q 819 25 488 141 
L 488 750 
Q 750 597 1062 519 
Q 1375 441 1716 441 
Q 2309 441 2620 675 
Q 2931 909 2931 1356 
Q 2931 1769 2642 2001 
Q 2353 2234 1838 2234 
L 1294 2234 
L 1294 2753 
L 1863 2753 
Q 2328 2753 2575 2939 
Q 2822 3125 2822 3475 
Q 2822 3834 2567 4026 
Q 2313 4219 1838 4219 
Q 1578 4219 1281 4162 
Q 984 4106 628 3988 
L 628 4550 
Q 988 4650 1302 4700 
Q 1616 4750 1894 4750 
Q 2613 4750 3031 4423 
Q 3450 4097 3450 3541 
Q 3450 3153 3228 2886 
Q 3006 2619 2597 2516 
z
" transform="scale(0.015625)"/>
      </defs>
      <use xlink:href="#DejaVuSans-32"/>
      <use xlink:href="#DejaVuSans-30" transform="translate(63.623047 0)"/>
      <use xlink:href="#DejaVuSans-32" transform="translate(127.246094 0)"/>
      <use xlink:href="#DejaVuSans-33" transform="translate(190.869141 0)"/>
     </g>
    </g>
   </g>
  </g>
 </g>
 <defs>
  <clipPath id="p81239d3203">
   <rect x="57.6" y="145.314022" width="357.12" height="58.427955"/>
  </clipPath>
 </defs>
</svg>
